<?xml version="1.0" encoding="iso-8859-1"?>
<!-- Uploaded to: SVG Repo, www.svgrepo.com, Generator: SVG Repo Mixer Tools -->
<svg height="800px" width="800px" version="1.1" id="Layer_1" xmlns="http://www.w3.org/2000/svg" xmlns:xlink="http://www.w3.org/1999/xlink" 
	 viewBox="0 0 512 512" xml:space="preserve">
<g transform="translate(1 1)">
	<g>
		<path style="fill:#E2E3E5;" d="M75.8,511c-5.12,0-8.533-3.413-8.533-8.533V280.6c0-5.12,3.413-8.533,8.533-8.533
			s8.533,3.413,8.533,8.533v221.867C84.333,507.587,80.92,511,75.8,511z"/>
		<path style="fill:#E2E3E5;" d="M75.8,41.667c-5.12,0-8.533-3.413-8.533-8.533v-25.6C67.267,2.413,70.68-1,75.8-1
			s8.533,3.413,8.533,8.533v25.6C84.333,38.253,80.92,41.667,75.8,41.667z"/>
		<path style="fill:#E2E3E5;" d="M289.133,33.987v256c69.973-36.693,162.133,0,162.133,0v-256
			C451.267,33.987,359.107-3.56,289.133,33.987"/>
	</g>
	<path style="fill:#CCCCCC;" d="M263.533,33.987v256c69.973-36.693,162.133,0,162.133,0v-256
		C425.667,33.987,333.507-3.56,263.533,33.987"/>
	<path style="fill:#FFFFFF;" d="M229.4,289.987V50.2C159.427,86.893,67.267,33.987,67.267,33.987v256
		C67.267,289.987,159.427,326.68,229.4,289.987"/>
	<path style="fill:#E2E3E5;" d="M263.533,33.987c-69.973,36.693-170.667,0-170.667,0v256c0,0,100.693,36.693,170.667,0
		s136.533,0,136.533,0v-256C400.067,33.987,333.507-3.56,263.533,33.987"/>
	<g>
		<path style="fill:#B6B6B6;" d="M67.267,511c-5.12,0-8.533-3.413-8.533-8.533V280.6c0-5.12,3.413-8.533,8.533-8.533
			S75.8,275.48,75.8,280.6v221.867C75.8,507.587,72.387,511,67.267,511z"/>
		<path style="fill:#B6B6B6;" d="M181.613,314.733c-58.027,0-112.64-16.213-116.053-17.067c-3.413-0.853-5.973-4.267-5.973-8.533
			v-256c0-2.56,0.853-5.12,3.413-6.827c1.707-0.853,4.267-1.707,6.827-0.853c0.853,0,123.733,35.84,190.293,0.853
			c71.68-38.4,164.693-1.707,168.96-0.853c3.413,1.707,5.12,5.12,5.12,8.533v256c0,2.56-1.707,5.12-3.413,6.827
			c-2.56,1.707-5.12,1.707-7.68,0.853c-0.853,0-89.6-34.987-155.307,0C243.053,310.467,211.48,314.733,181.613,314.733z
			 M75.8,283.16c25.6,6.827,126.293,29.013,183.467-0.853c58.027-30.72,129.707-13.653,157.867-4.267V39.96
			c-20.48-6.827-93.867-28.16-149.333,1.707C207.213,73.24,109.08,52.76,75.8,45.08V283.16z"/>
		<path style="fill:#B6B6B6;" d="M67.267,41.667c-5.12,0-8.533-3.413-8.533-8.533v-25.6c0-5.12,3.413-8.533,8.533-8.533
			S75.8,2.413,75.8,7.533v25.6C75.8,38.253,72.387,41.667,67.267,41.667z"/>
	</g>
</g>
</svg>